<?xml version="1.0" standalone="no"?>
<!DOCTYPE svg PUBLIC "-//W3C//DTD SVG 20010904//EN"
 "http://www.w3.org/TR/2001/REC-SVG-20010904/DTD/svg10.dtd">
<svg version="1.0" xmlns="http://www.w3.org/2000/svg"
 width="256.000000pt" height="256.000000pt" viewBox="0 0 256.000000 256.000000"
 preserveAspectRatio="xMidYMid meet">
<metadata>
Created by potrace 1.14, written by Peter Selinger 2001-2017
</metadata>
<g transform="translate(0.000000,256.000000) scale(0.100000,-0.100000)"
fill="#000000" stroke="none">
<path d="M1140 2554 c-34 -6 -141 -25 -160 -30 -83 -19 -213 -65 -218 -76 -2
-5 -10 -8 -18 -8 -7 0 -30 -9 -51 -21 -358 -199 -582 -496 -669 -889 -11 -49
-18 -130 -19 -231 -3 -228 34 -398 131 -589 137 -272 357 -482 631 -603 66
-30 199 -72 255 -81 18 -3 47 -9 63 -12 41 -10 318 -10 385 -1 30 4 93 17 140
30 486 135 836 517 929 1012 15 76 18 135 16 250 -1 83 -5 161 -9 175 -3 14
-11 50 -17 80 -73 354 -332 688 -665 857 -82 42 -224 98 -244 96 -3 0 -16 3
-29 8 -13 5 -40 12 -60 15 -20 3 -47 8 -61 10 -32 7 -297 13 -330 8z"/>
</g>
</svg>
